<?xml version="1.0" encoding="UTF-8" standalone="no"?>
<!-- Generator: Adobe Illustrator 15.0.2, SVG Export Plug-In  -->

<svg
   xmlns:dc="http://purl.org/dc/elements/1.1/"
   xmlns:cc="http://creativecommons.org/ns#"
   xmlns:rdf="http://www.w3.org/1999/02/22-rdf-syntax-ns#"
   xmlns:svg="http://www.w3.org/2000/svg"
   xmlns="http://www.w3.org/2000/svg"
   xmlns:sodipodi="http://sodipodi.sourceforge.net/DTD/sodipodi-0.dtd"
   xmlns:inkscape="http://www.inkscape.org/namespaces/inkscape"
   version="1.1"
   x="0px"
   y="0px"
   width="436px"
   height="398px"
   viewBox="0 0 436 398"
   overflow="visible"
   enable-background="new 0 0 436 398"
   xml:space="preserve"
   id="svg3033"
   inkscape:version="0.48.2 r9819"
   sodipodi:docname="investor_icons_vector.svg"><metadata
   id="metadata3041"><rdf:RDF><cc:Work
       rdf:about=""><dc:format>image/svg+xml</dc:format><dc:type
         rdf:resource="http://purl.org/dc/dcmitype/StillImage" /><dc:title></dc:title></cc:Work></rdf:RDF></metadata><sodipodi:namedview
   pagecolor="#ffffff"
   bordercolor="#666666"
   borderopacity="1"
   objecttolerance="10"
   gridtolerance="10"
   guidetolerance="10"
   inkscape:pageopacity="0"
   inkscape:pageshadow="2"
   inkscape:window-width="1563"
   inkscape:window-height="1015"
   id="namedview3039"
   showgrid="false"
   showguides="true"
   inkscape:guide-bbox="true"
   inkscape:zoom="3.2713568"
   inkscape:cx="190.42344"
   inkscape:cy="174.93376"
   inkscape:window-x="204"
   inkscape:window-y="66"
   inkscape:window-maximized="0"
   inkscape:current-layer="svg3033"><sodipodi:guide
     orientation="0,1"
     position="192.80662,300.01748"
     id="guide3059" /><sodipodi:guide
     orientation="1,0"
     position="100.29403,441.81248"
     id="guide3061" /><sodipodi:guide
     orientation="1,0"
     position="200.58805,421.9266"
     id="guide3063" /><sodipodi:guide
     orientation="0,1"
     position="-127.96135,199.72345"
     id="guide3065" /><sodipodi:guide
     orientation="1,0"
     position="300.01748,395.12388"
     id="guide3067" /><sodipodi:guide
     orientation="-0.70710678,0.70710678"
     position="-306.0697,459.96916"
     id="guide3069" /><sodipodi:guide
     orientation="0,1"
     position="-112.39848,100.29403"
     id="guide3071" /><sodipodi:guide
     orientation="1,0"
     position="400.31151,330.27861"
     id="guide3073" /></sodipodi:namedview>
<defs
   id="defs3035">
<clipPath
   id="clipPath3292"
   clipPathUnits="userSpaceOnUse"><path
     id="path3294"
     d="M 0,38 32,38 32,0 0,0 0,38 z" /></clipPath><clipPath
   id="clipPath3405"
   clipPathUnits="userSpaceOnUse"><path
     id="path3407"
     d="M 0,792 612,792 612,0 0,0 0,792 z" /></clipPath>
</defs>
<path
   d="M 26.794169,84.249468 H 60.291082 V 2 H 26.794169 V 84.249468 z M 55.344712,72.702922 h -8.948994 v -8.94879 h 8.948994 v 8.94879 z M 38.690384,50.353967 h 8.948995 v 8.948789 h -8.948995 v -8.948789 z m 16.654328,-4.452824 h -8.948994 v -8.94755 h 8.948994 v 8.94755 z M 38.690384,23.552394 h 8.948995 v 8.948581 h -8.948995 v -8.948581 z m 7.705334,-13.400581 h 8.948994 v 8.948169 h -8.948994 v -8.948169 z m -15.410874,0 h 8.948376 v 8.948169 h -8.948376 v -8.948169 z m 0,26.80178 h 8.948376 v 8.94755 h -8.948376 v -8.94755 z m 0,26.800746 h 8.948376 v 8.948788 H 30.984844 V 63.754339 z M 2,84.249468 H 22.082086 V 28.004185 H 2 V 84.249468 z M 7.5674747,32.419853 h 8.9477563 v 8.948789 H 7.5674747 v -8.948789 z m 0,15.90896 h 8.9477563 v 8.948582 H 7.5674747 v -8.948582 z m 0,15.286608 h 8.9477563 v 8.948994 H 7.5674747 V 63.615421 z M 88.114006,35.929146 V 25.239645 H 83.241124 V 14.809609 H 79.744216 V 5.1082245 H 76.805254 V 14.809609 H 73.308552 V 25.239645 H 68.436285 V 35.929146 H 64.469367 V 84.249468 H 92.081333 V 35.929146 H 88.114006 z M 77.9874,78.104438 H 69.038818 V 69.156476 H 77.9874 v 8.947962 z m 0,-27.437337 H 69.038818 V 41.718725 H 77.9874 v 8.948376 z M 88.491743,64.273068 H 79.54316 v -8.948583 h 8.948583 v 8.948583 z"
   id="path3037"
   inkscape:connector-curvature="0"
   style="fill:#ffffff" />
<g
   id="g3226"
   transform="matrix(0.87667507,0,0,0.87667507,103.96223,2.1863201)"
   style="fill:#ffffff"><path
     id="path3214"
     d="M 97.256,49.829 H 62.6 c -1.521,0 -2.75,1.229 -2.75,2.747 0,0.775 0.322,1.468 0.838,1.969 l 24.408,24.411 0.014,-0.003 c 0.5,0.536 1.207,0.876 2,0.876 0.949,0 1.785,-0.482 2.281,-1.217 5.998,-6.958 9.856,-15.812 10.562,-25.54 0.03,-0.163 0.054,-0.328 0.054,-0.496 C 100,51.058 98.773,49.829 97.256,49.829 z"
     display="none"
     inkscape:connector-curvature="0"
     style="fill:#ffffff;display:none" /><path
     id="path3216"
     d="m 52.915,44.026 h 38.519 l 0.002,-0.002 c 0,0 0.004,0.002 0.01,0.002 1.518,0 2.744,-1.233 2.744,-2.749 l 0,0 C 92.829,19.103 75.085,1.365 52.915,0 l -0.011,0.008 c -1.51,0.007 -2.736,1.233 -2.736,2.747 v 38.521 c 0,1.517 1.228,2.75 2.747,2.75 z"
     inkscape:connector-curvature="0"
     style="fill:#ffffff" /><path
     id="path3218"
     d="m 73.305,76.706 -0.01,-0.004 c -0.004,-0.007 -0.007,-0.013 -0.01,-0.016 l -28.4,-28.401 v -0.01 c -0.48,-0.493 -0.772,-1.164 -0.772,-1.907 H 44.105 V 6.227 6.224 C 44.1,4.711 42.877,3.491 41.364,3.489 L 41.361,3.483 C 18.281,4.9 0,24.069 0,47.506 c 0,24.357 19.747,44.106 44.104,44.106 11.111,0 21.257,-4.106 29.013,-10.882 v -0.013 c 0.598,-0.503 0.977,-1.246 0.977,-2.085 0,-0.748 -0.3,-1.428 -0.789,-1.926 l 0,0 z"
     inkscape:connector-curvature="0"
     style="fill:#ffffff" /></g><g
   transform="matrix(0.92746818,0,0,-0.92746818,-59.787834,386.80096)"
   inkscape:label="Shape 51 [Converted]"
   id="g3399"
   style="fill:#ffffff"><g
     id="g3401"
     style="fill:#ffffff"><g
       clip-path="url(#clipPath3405)"
       id="g3403"
       style="fill:#ffffff"><path
         id="path3409"
         style="fill:#ffffff;fill-opacity:1;fill-rule:nonzero;stroke:none"
         d="m 358.998,360.317 -61.066,0 0,37.342 61.066,0 0,-37.342 z m 7.377,44.719 -35.136,0 0,6.112 c 0,1.745 -1.415,3.161 -3.159,3.161 -1.747,0 -3.163,-1.416 -3.163,-3.161 l 0,-6.112 -34.363,0 0,-52.097 23.579,0 -9.238,-23.94 7.909,10e-4 9.238,23.939 12.068,0 9.242,-23.939 1.025,-2.656 c 0.564,-1.465 1.962,-2.362 3.445,-2.362 0.442,0 0.89,0.08 1.325,0.248 1.903,0.734 2.849,2.87 2.114,4.77 l -9.239,23.939 24.353,0 0,52.097 z"
         inkscape:connector-curvature="0" /><g
         transform="translate(305.8921,365.9126)"
         id="g3411"
         style="fill:#ffffff"><path
           id="path3413"
           style="fill:#ffffff;fill-opacity:1;fill-rule:nonzero;stroke:none"
           d="M 0,0 16.942,11.37 21.031,5.273 39.37,17.582 41.722,14.076 47.184,25.898 34.164,25.341 36.693,21.57 22.344,11.94 18.251,18.037 -2.678,3.986 0,-0.002 0,0 z"
           inkscape:connector-curvature="0" /></g></g></g></g><path
   id="path3587"
   d="M 37.297793,102.84178 H 6.0463517 v 55.60754 H 49.976305 l 5.53e-4,-43.53236 -12.679065,-12.07518 z m 1.001492,5.56131 5.838234,5.5602 -5.838234,0 v -5.5602 z M 9.382804,155.11286 V 106.17824 H 34.96283 v 11.1215 l 11.677581,0 -5.61e-4,37.81312 H 9.382804 z"
   inkscape:connector-curvature="0"
   style="fill:#b3b3b3" /><g
   id="g3721"
   transform="matrix(0.81808539,0,0,0.81808539,78.708004,98.684064)"
   style="fill:#ffffff"><path
     id="path3701"
     d="m 49.449,90.719 c 6.33,0 15.844,-2.797 15.844,-19.293 0,-3.65 -0.089,-9.242 -0.646,-14.662 -0.016,-0.145 -9.808,-0.998 -15.389,-0.998 h 0.376 c -5.581,0 -15.373,0.854 -15.388,0.998 -0.558,5.42 -0.646,11.012 -0.646,14.662 0,16.496 9.512,19.293 15.843,19.293"
     inkscape:connector-curvature="0"
     style="fill:#ffffff" /><path
     id="path3703"
     d="m 47.996,53.051 c -5.379,-0.031 -9.557,0.271 -13.635,0.814 0.532,-3.786 1.332,-7.208 2.545,-9.402 2.21,-3.988 7.188,-4.099 11.097,-4.008 l -0.007,12.596 z"
     inkscape:connector-curvature="0"
     style="fill:#ffffff" /><path
     id="path3705"
     d="m 50.866,52.991 c 5.379,-0.027 9.558,0.272 13.634,0.815 -0.531,-3.787 -1.33,-7.208 -2.544,-9.402 -2.21,-3.988 -7.188,-4.099 -11.097,-4.008 l 0.007,12.595 z"
     inkscape:connector-curvature="0"
     style="fill:#ffffff" /><path
     id="path3707"
     d="m 33.366,71.426 c 0,16.496 9.514,19.293 15.844,19.293"
     inkscape:connector-curvature="0"
     style="fill:#ffffff" /><g
     id="g3709"
     style="fill:#ffffff">
	<g
   id="g3711"
   style="fill:#ffffff">
		<path
   id="path3713"
   d="m 50.859,40.417 -2.856,0.038 10e-4,-0.993 c -0.005,-1.584 -0.01,-3.221 0.246,-4.866 0.441,-2.85 1.749,-5.441 3.887,-7.7 0.727,-0.77 1.508,-1.398 2.264,-2.005 0.469,-0.374 0.906,-0.728 1.328,-1.107 0.959,-0.863 1.703,-1.597 1.852,-2.533 0.281,-1.809 -0.469,-3.369 -2.232,-4.635 C 54.756,16.193 54.06,15.841 53.322,15.47 51.478,14.54 49.389,13.486 48.437,10.969 47.581,8.721 48.109,5.986 49.777,4 l 2.141,1.798 c -1.011,1.205 -1.361,2.884 -0.872,4.178 0.569,1.5 1.94,2.193 3.531,2.996 0.802,0.404 1.63,0.822 2.396,1.372 2.618,1.877 3.814,4.485 3.367,7.339 -0.311,1.992 -1.716,3.256 -2.74,4.18 -0.479,0.433 -0.974,0.828 -1.447,1.209 -0.713,0.574 -1.389,1.116 -1.984,1.746 -1.736,1.84 -2.799,3.929 -3.15,6.209 -0.226,1.427 -0.16,2.894 -0.154,4.436 v 0.954 h -0.006 z"
   inkscape:connector-curvature="0"
   style="fill:#ffffff" />
	</g>
</g></g><path
   id="path3061"
   d="m 280.9155,7.2653659 h -60.04269 c -7.15008,0 -12.94836,6.2495791 -12.94836,13.9586631 v 29.820258 c 0,7.708198 5.79828,13.958663 12.94836,13.958663 h 9.907 c 0,5.491948 0,10.983894 0,16.477612 0,0.908096 1.21345,1.549782 1.84166,0.785955 4.71975,-5.754818 9.44035,-11.508749 14.16096,-17.263567 h 34.13308 c 7.14922,0 12.9475,-6.250465 12.9475,-13.958663 V 21.224029 c 0,-7.709084 -5.79828,-13.9586631 -12.9475,-13.9586631 z"
   inkscape:connector-curvature="0"
   style="fill:#a6a6a6" /><path
   id="path3108"
   d="m 247.4697,144.32561 c -2.95945,-3.40201 -6.45817,-2.68865 -10.49076,-6.43573 -2.00082,-1.85923 -1.81048,-13.43009 -1.81048,-13.43009 0,0 -0.1501,-10.03271 1.90487,-12.08847 1.42055,-1.41744 3.91498,-1.78417 5.36802,-3.2109 0.0139,-0.0105 0.0233,-0.0193 0.0341,-0.0325 0.31337,-0.31413 0.56792,-0.68396 0.7567,-1.12266 0.0233,-0.0464 0.0488,-0.082 0.065,-0.12767 0.12767,-0.33424 0.19652,-0.72652 0.23289,-1.14896 0.0105,-0.10835 0.0619,-0.19962 0.0619,-0.30794 0,-0.0193 -0.0105,-0.0356 -0.0131,-0.0558 0.003,-0.0294 0.0131,-0.0518 0.0131,-0.0812 0,-0.0719 -0.055,-0.10835 -0.0619,-0.17409 -0.16867,-1.9776 -1.77567,-3.54514 -3.79428,-3.54514 h -24.15451 c -2.01938,0 -3.62716,1.56754 -3.7935,3.54514 -0.007,0.065 -0.0627,0.10138 -0.0627,0.17409 0,0.0294 0.0105,0.0518 0.0131,0.0812 -0.003,0.0201 -0.0131,0.0364 -0.0131,0.0558 0,0.10834 0.0526,0.19962 0.0627,0.30794 0.0356,0.42168 0.1044,0.81472 0.23211,1.14896 0.0163,0.0456 0.0426,0.0813 0.0657,0.12767 0.18646,0.4387 0.44178,0.80853 0.75591,1.12266 0.0105,0.0131 0.0193,0.0225 0.0325,0.0325 1.45303,1.42749 3.94747,1.79346 5.36801,3.2109 2.05575,2.05576 1.90488,12.08847 1.90488,12.08847 0,0 0.19033,11.57086 -1.81049,13.43009 -4.03181,3.74708 -7.53054,3.03372 -10.4892,6.43573 -2.09521,2.40856 -1.71145,6.70344 -1.71145,6.70344 h 19.86194 v 17.50135 l 1.48553,10.63157 h 0.35358 l 1.48708,-10.63157 v -17.50135 h 19.85808 c 0,0 0.38221,-4.29488 -1.71223,-6.70344 z"
   inkscape:connector-curvature="0"
   style="fill:#a6a6a6" /><g
   style="fill:#b3b3b3"
   transform="matrix(0.9837599,0,0,0.9837599,275.23694,4.482196)"
   id="g3195"><path
     style="fill:#b3b3b3"
     inkscape:connector-curvature="0"
     d="m 49.449,90.719 c 6.33,0 15.844,-2.797 15.844,-19.293 0,-3.65 -0.089,-9.242 -0.646,-14.662 -0.016,-0.145 -9.808,-0.998 -15.389,-0.998 h 0.376 c -5.581,0 -15.373,0.854 -15.388,0.998 -0.558,5.42 -0.646,11.012 -0.646,14.662 0,16.496 9.512,19.293 15.843,19.293"
     id="path3197" /><path
     style="fill:#b3b3b3"
     inkscape:connector-curvature="0"
     d="m 47.996,53.051 c -5.379,-0.031 -9.557,0.271 -13.635,0.814 0.532,-3.786 1.332,-7.208 2.545,-9.402 2.21,-3.988 7.188,-4.099 11.097,-4.008 l -0.007,12.596 z"
     id="path3199" /><path
     style="fill:#b3b3b3"
     inkscape:connector-curvature="0"
     d="m 50.866,52.991 c 5.379,-0.027 9.558,0.272 13.634,0.815 -0.531,-3.787 -1.33,-7.208 -2.544,-9.402 -2.21,-3.988 -7.188,-4.099 -11.097,-4.008 l 0.007,12.595 z"
     id="path3201" /><path
     style="fill:#b3b3b3"
     inkscape:connector-curvature="0"
     d="m 33.366,71.426 c 0,16.496 9.514,19.293 15.844,19.293"
     id="path3203" /><g
     style="fill:#b3b3b3"
     id="g3205">
	<g
   style="fill:#b3b3b3"
   id="g3207">
		<path
   style="fill:#b3b3b3"
   inkscape:connector-curvature="0"
   d="m 50.859,40.417 -2.856,0.038 10e-4,-0.993 c -0.005,-1.584 -0.01,-3.221 0.246,-4.866 0.441,-2.85 1.749,-5.441 3.887,-7.7 0.727,-0.77 1.508,-1.398 2.264,-2.005 0.469,-0.374 0.906,-0.728 1.328,-1.107 0.959,-0.863 1.703,-1.597 1.852,-2.533 0.281,-1.809 -0.469,-3.369 -2.232,-4.635 C 54.756,16.193 54.06,15.841 53.322,15.47 51.478,14.54 49.389,13.486 48.437,10.969 47.581,8.721 48.109,5.986 49.777,4 l 2.141,1.798 c -1.011,1.205 -1.361,2.884 -0.872,4.178 0.569,1.5 1.94,2.193 3.531,2.996 0.802,0.404 1.63,0.822 2.396,1.372 2.618,1.877 3.814,4.485 3.367,7.339 -0.311,1.992 -1.716,3.256 -2.74,4.18 -0.479,0.433 -0.974,0.828 -1.447,1.209 -0.713,0.574 -1.389,1.116 -1.984,1.746 -1.736,1.84 -2.799,3.929 -3.15,6.209 -0.226,1.427 -0.16,2.894 -0.154,4.436 v 0.954 h -0.006 z"
   id="path3209" />
	</g>
</g></g><path
   id="path3182"
   d="m 30.83187,292.00387 39.424,-39.426 13.959,13.96 8.789,-62.723 -62.723,8.789 13.958,13.958 -39.4240004,39.424 26.0170004,26.018 z"
   inkscape:connector-curvature="0"
   style="fill:#8cc63f" /><g
   style="overflow:visible"
   id="g3239"
   transform="matrix(0.94331336,0,0,0.94331336,100.29403,211.30079)"><path
     id="path3233"
     d="m 0,56.534 h 55.755 v 19.74 L 106.321,38.138 55.755,0 V 19.74 H 0 l 0,36.794 z"
     clip-rule="evenodd"
     inkscape:connector-curvature="0"
     style="fill:#888888;fill-rule:evenodd" /></g><path
   id="path3289"
   d="m 205.34279,229.2195 39.425,39.424 -13.958,13.959 62.723,8.791 -8.79,-62.725 -13.959,13.958 -39.423,-39.424 -26.018,26.017 z"
   inkscape:connector-curvature="0"
   style="fill:#ee3224" /></svg>