<?xml version="1.0" standalone="no"?>
<!DOCTYPE svg PUBLIC "-//W3C//DTD SVG 20010904//EN"
 "http://www.w3.org/TR/2001/REC-SVG-20010904/DTD/svg10.dtd">
<svg version="1.0" xmlns="http://www.w3.org/2000/svg"
 width="260.000000pt" height="260.000000pt" viewBox="0 0 260.000000 260.000000"
 preserveAspectRatio="xMidYMid meet">
<metadata>
Created by potrace 1.11, written by Peter Selinger 2001-2013
</metadata>
<g transform="translate(0.000000,260.000000) scale(0.100000,-0.100000)"
fill="#000000" stroke="none">
<path d="M0 1300 l0 -1300 1300 0 1300 0 0 1300 0 1300 -1300 0 -1300 0 0
-1300z m1527 1205 c577 -109 993 -613 993 -1200 0 -587 -416 -1091 -993 -1200
-105 -20 -349 -20 -454 0 -346 66 -648 280 -829 586 -220 375 -220 853 0 1228
177 301 465 508 806 581 111 24 364 26 477 5z"/>
<path d="M1180 2409 c-115 -11 -245 -50 -365 -108 -383 -185 -625 -570 -625
-995 0 -350 163 -676 444 -888 270 -204 641 -274 963 -183 725 207 1041 1048
630 1678 -226 347 -631 538 -1047 496z m233 -253 c45 -18 84 -67 92 -116 8
-48 -24 -122 -66 -153 -66 -48 -182 -20 -221 53 -25 46 -20 125 10 167 41 57
118 78 185 49z m75 -1028 l-3 -633 -132 -3 -133 -3 0 551 0 550 -144 0 -145 0
-24 33 c-14 17 -37 56 -51 85 l-26 52 330 0 330 0 -2 -632z"/>
</g>
</svg>
